<mxfile host="app.diagrams.net" modified="2024-05-15T14:48:05.676Z" agent="Mozilla/5.0 (Windows NT 10.0; Win64; x64) AppleWebKit/537.36 (KHTML, like Gecko) Chrome/124.0.0.0 Safari/537.36" etag="CulRxcz43A1v1PBorZn2" version="24.4.0" type="device">
  <diagram name="PÃ¡gina-1" id="H0MfxUKhuqIqpv84QuE9">
    <mxGraphModel dx="1120" dy="506" grid="1" gridSize="10" guides="1" tooltips="1" connect="1" arrows="1" fold="1" page="1" pageScale="1" pageWidth="827" pageHeight="1169" math="0" shadow="0">
      <root>
        <mxCell id="0" />
        <mxCell id="1" parent="0" />
        <mxCell id="9QMK5O5Q5hz0WHMdZrCz-1" value="" style="rounded=0;whiteSpace=wrap;html=1;" vertex="1" parent="1">
          <mxGeometry x="90" y="30" width="600" height="450" as="geometry" />
        </mxCell>
        <mxCell id="9QMK5O5Q5hz0WHMdZrCz-2" value="Laptop i5" style="text;html=1;align=center;verticalAlign=middle;whiteSpace=wrap;rounded=0;" vertex="1" parent="1">
          <mxGeometry x="90" y="10" width="150" height="30" as="geometry" />
        </mxCell>
        <mxCell id="9QMK5O5Q5hz0WHMdZrCz-3" value="" style="rounded=0;whiteSpace=wrap;html=1;" vertex="1" parent="1">
          <mxGeometry x="110" y="50" width="560" height="410" as="geometry" />
        </mxCell>
        <mxCell id="9QMK5O5Q5hz0WHMdZrCz-4" value="Ubuntu 24.04" style="text;html=1;align=center;verticalAlign=middle;whiteSpace=wrap;rounded=0;" vertex="1" parent="1">
          <mxGeometry x="130" y="30" width="90" height="30" as="geometry" />
        </mxCell>
      </root>
    </mxGraphModel>
  </diagram>
</mxfile>
